PathFileType	4	(X/Y/Z)	Sub_1_bilateral_squat02_.centers_.trc
DataRate	CameraRate	NumFrames	NumMarkers	Units	OrigDataRate	OrigDataStartFrame	OrigNumFrames
60.0	60.0	4	120	mm	100.0	270	597
Frame#	Time		Back_Left_Head		Back_Right_Head		C7		CenterHead		COP_Projection		COP_Projection_GroundY		F_LHIP		F_RHIP		Front_Left_Head		Front_Right_Head		Girdle_Center		Head		JC.L.Elbow		JC.L.Hand		JC.L.Wrist		JC.R.Elbow		JC.R.Hand		JC.R.Wrist		JC_L.Hip		JC_R.Hip		L.Ankle.Center		L.Ankle.Lateral		L.Elbow		L.Hand		L.Heel		L.Hip		L.Iliac.Crest		L.Knee.Center		L.Knee.Lateral		L.PSIS		L.Shank.Front		L.Shank.Rear		L.Shank.Upper		L.Shoulder		L.Thigh.Front		L.Thigh.Rear		L.Thigh.Upper		L.Toe		L.Wrist.Radial		L.Wrist.Ulnar		LAB_Origin		LAB_X		LAB_Y		LAB_Z		LDFA midpoint		LEFT_FOOT_BORDER1		LEFT_FOOT_BORDER2		LEFT_FOOT_BORDER3		LForearmX		LForearmY		LForearmZ		LHandX		LHandY		LHandZ		LHIP		LLowerArmX		LLowerArmY		LLowerArmZ		LMID_MALLEOLI_V		LPFA midpoint		mid_ASIS		Mid_ASIS_Projection		Mid_ASIS_Projection_Lateral		Mid_ASIS_Projection_LateralZ		North_Virtual_Origin		Offset		Pelvis.Center		Pelvis_Center		PelvisX		PelvisY		PelvisZ		R.Ankle.Center		R.Ankle.Lateral		R.Elbow		R.Hand		R.Heel		R.Hip		R.Iliac.Crest		R.Knee.Center		R.Knee.Lateral		R.Shank.Front		R.Shank.Rear		R.Shank.Upper		R.Shoulder		R.Thigh.Front		R.Thigh.Rear		R.Thigh.Upper		R.Toe		R.Wrist.Radial		R.Wrist.Ulnar		RDFA midpoint		RForearmX		RForearmY		RForearmZ		RHandX		RHandY		RHandZ		RHIP		RIGHT_FOOT_BORDER1		RIGHT_FOOT_BORDER2		RIGHT_FOOT_BORDER3		RLowerArmX		RLowerArmY		RLowerArmZ		RMID_MALLEOLI_V		RPFA midpoint		V.Sacral		v3d_lab_lat_distal		v3d_lab_lat_prox		v3d_lab_med_distal		v3d_lab_med_prox		V_L.Hip.skin		V_R.Hip.skin		V_V.Sacral.skin		Virtual_Lab_Origin		X.Shell.Lower.Shank.Left		X.Shell.Lower.Shank.Right		X.Shell.Lower.Thigh.Left		X.Shell.Lower.Thigh.Right		Z_Virtual_Lab_Origin
			X1	Y1	Z1	X2	Y2	Z2	X3	Y3	Z3	X4	Y4	Z4	X5	Y5	Z5	X6	Y6	Z6	X7	Y7	Z7	X8	Y8	Z8	X9	Y9	Z9	X10	Y10	Z10	X11	Y11	Z11	X12	Y12	Z12	X13	Y13	Z13	X14	Y14	Z14	X15	Y15	Z15	X16	Y16	Z16	X17	Y17	Z17	X18	Y18	Z18	X19	Y19	Z19	X20	Y20	Z20	X21	Y21	Z21	X22	Y22	Z22	X23	Y23	Z23	X24	Y24	Z24	X25	Y25	Z25	X26	Y26	Z26	X27	Y27	Z27	X28	Y28	Z28	X29	Y29	Z29	X30	Y30	Z30	X31	Y31	Z31	X32	Y32	Z32	X33	Y33	Z33	X34	Y34	Z34	X35	Y35	Z35	X36	Y36	Z36	X37	Y37	Z37	X38	Y38	Z38	X39	Y39	Z39	X40	Y40	Z40	X41	Y41	Z41	X42	Y42	Z42	X43	Y43	Z43	X44	Y44	Z44	X45	Y45	Z45	X46	Y46	Z46	X47	Y47	Z47	X48	Y48	Z48	X49	Y49	Z49	X50	Y50	Z50	X51	Y51	Z51	X52	Y52	Z52	X53	Y53	Z53	X54	Y54	Z54	X55	Y55	Z55	X56	Y56	Z56	X57	Y57	Z57	X58	Y58	Z58	X59	Y59	Z59	X60	Y60	Z60	X61	Y61	Z61	X62	Y62	Z62	X63	Y63	Z63	X64	Y64	Z64	X65	Y65	Z65	X66	Y66	Z66	X67	Y67	Z67	X68	Y68	Z68	X69	Y69	Z69	X70	Y70	Z70	X71	Y71	Z71	X72	Y72	Z72	X73	Y73	Z73	X74	Y74	Z74	X75	Y75	Z75	X76	Y76	Z76	X77	Y77	Z77	X78	Y78	Z78	X79	Y79	Z79	X80	Y80	Z80	X81	Y81	Z81	X82	Y82	Z82	X83	Y83	Z83	X84	Y84	Z84	X85	Y85	Z85	X86	Y86	Z86	X87	Y87	Z87	X88	Y88	Z88	X89	Y89	Z89	X90	Y90	Z90	X91	Y91	Z91	X92	Y92	Z92	X93	Y93	Z93	X94	Y94	Z94	X95	Y95	Z95	X96	Y96	Z96	X97	Y97	Z97	X98	Y98	Z98	X99	Y99	Z99	X100	Y100	Z100	X101	Y101	Z101	X102	Y102	Z102	X103	Y103	Z103	X104	Y104	Z104	X105	Y105	Z105	X106	Y106	Z106	X107	Y107	Z107	X108	Y108	Z108	X109	Y109	Z109	X110	Y110	Z110	X111	Y111	Z111	X112	Y112	Z112	X113	Y113	Z113	X114	Y114	Z114	X115	Y115	Z115	X116	Y116	Z116	X117	Y117	Z117	X118	Y118	Z118	X119	Y119	Z119	X120	Y120	Z120

270	4.48333	-150.58725	1520.81939	-98.67998	-1.64555	1526.36356	-104.63018	-76.27444	1395.18797	-83.67484	-73.42266	1549.33045	-164.72577	-69.24805	0.00000	-176.46720	-69.24805	0.00000	-276.46718	-133.30222	879.07437	-204.58191	0.32504	878.28926	-207.51386	-145.19977	1572.29735	-224.82135	-17.56435	1575.39892	-228.39353	-78.53777	1411.77496	-151.50610	-74.69420	1640.91398	-125.01338	-214.14129	1317.63771	-454.25549	-186.72855	1401.92255	-730.53086	-192.82354	1363.28269	-667.92719	55.43095	1325.21337	-457.31644	33.20682	1368.36267	-740.32546	33.50311	1390.01202	-670.50011	-124.43792	879.30897	-206.29155	-8.26214	878.27075	-209.61699	-186.62550	77.68562	-141.64082	-220.37791	72.05829	-128.48658	-214.14129	1317.63771	-454.25549	-189.07974	1375.03558	-735.34841	-185.26427	46.57176	-77.07263	-171.10764	941.84849	-260.33764	-217.44855	962.02875	-206.71719	-163.37946	463.47148	-142.97305	-226.23095	471.90576	-139.97568	-116.43984	976.15026	-88.12576	-241.23430	222.78081	-141.64392	-241.26622	222.95340	-92.30409	-248.57580	263.96412	-111.28500	-203.25955	1409.90391	-150.99833	-250.37900	612.08274	-172.23221	-238.08168	622.13211	-115.77293	-243.68563	650.75475	-150.64780	-211.52778	40.37627	-288.41657	-163.14550	1361.20278	-670.80341	-222.50158	1365.36258	-665.05097	0.00000	0.00000	-0.00000	999.99994	0.00000	-0.00000	0.00000	0.00000	-999.99994	0.00000	999.99994	-0.00000	-192.82354	1363.28269	-667.92719	-211.72647	42.21388	-288.46638	-223.00807	73.96753	-129.72727	-182.84948	50.63061	-75.91034	-143.25982	1357.89384	-664.13343	-188.36742	1411.89208	-657.09861	-197.67884	1352.88661	-619.26154	-136.96649	1397.54896	-728.38562	-184.14241	1444.30063	-704.12260	-190.85681	1375.75088	-688.12802	-216.73230	865.57704	-286.17166	-172.73813	1361.43818	-667.91306	-218.04541	1413.97188	-654.22227	-220.56894	1354.33004	-616.32158	-186.34703	80.98160	-141.34895	-203.48241	1340.46013	-561.09136	-67.37927	940.92156	-263.30676	-67.37927	0.00000	-263.30676	-69.24805	-0.00000	-263.30676	-69.24805	100.00000	-263.30676	0.00000	0.00000	999.99994	-186.88072	1331.06847	-73.70192	-67.17875	942.05778	-256.65615	-69.24805	955.77673	-176.46720	32.77631	941.16456	-259.51728	-64.85542	925.19992	-355.19752	-66.78037	1040.62656	-273.50933	80.73536	79.20205	-145.24406	113.93997	76.30979	-130.13971	55.43095	1325.21337	-457.31644	31.67673	1395.38188	-738.13912	81.22400	44.60874	-78.79656	36.34910	939.99456	-266.27594	80.64340	952.90620	-210.83181	33.47411	463.12414	-154.11655	92.04054	471.36409	-158.26476	123.46527	256.90263	-133.32048	116.23332	245.90468	-84.57611	131.93415	281.10075	-101.30129	46.18401	1413.64597	-152.01388	117.37193	637.98036	-192.14556	108.14757	619.00148	-133.03746	122.26044	657.70127	-155.59725	116.05785	43.78146	-283.53184	2.38983	1388.20894	-669.99124	64.61640	1391.81506	-671.00898	33.50311	1390.01202	-670.50011	-16.19249	1386.16387	-666.55814	36.02638	1342.30688	-685.25993	38.40011	1375.54093	-622.89122	-16.55711	1363.79129	-738.69695	38.05544	1320.82475	-725.60696	33.40947	1383.16972	-692.56868	-10.47205	876.39734	-218.01093	116.37608	43.97265	-284.67676	114.03651	76.85472	-128.52809	81.08501	45.72221	-79.46900	14.72220	1390.01334	-673.71518	67.13962	1344.10990	-685.76876	62.56625	1376.94987	-623.31388	78.21781	80.15116	-143.71146	44.46703	1357.61274	-563.90824	-71.11683	970.63194	-89.62762	0.00000	-1.00000	-1.00000	0.00000	0.00000	-1.00000	0.00000	-1.00000	1.00000	0.00000	0.00000	1.00000	-170.90713	942.98477	-253.68699	36.54963	941.13082	-259.62530	-70.96000	969.49408	-96.27917	0.00000	0.00000	-0.00000	-247.34858	195.92886	-122.13234	124.92911	212.36157	-112.83558	-240.01517	582.79575	-134.42387	112.62613	586.22469	-169.14007	0.00000	999.99994	-0.00000
271	4.50000	-150.60047	1520.21963	-97.99343	-1.62801	1525.41757	-103.93874	-76.64479	1394.51488	-82.80323	-73.34752	1548.68033	-164.01289	-69.27129	0.00000	-178.19609	-69.27129	0.00000	-278.19609	-133.08629	878.54493	-206.95213	0.54885	877.89684	-209.53571	-145.06704	1571.94304	-224.08704	-17.38619	1574.72919	-227.58996	-78.77204	1411.02203	-150.76967	-74.39500	1640.23080	-124.11501	-214.05868	1317.26346	-453.75084	-186.96617	1402.12923	-729.99012	-192.84529	1363.40598	-667.31366	55.64450	1324.52756	-456.52576	33.30945	1367.75142	-739.49857	33.68179	1389.35707	-669.67481	-124.20897	878.69168	-208.56337	-7.90873	877.82670	-211.67119	-186.62479	77.68506	-141.80459	-220.38533	72.04179	-128.50582	-214.05868	1317.26346	-453.75084	-189.05374	1375.18784	-734.81015	-185.29611	46.55465	-77.09446	-170.90760	941.45985	-262.48156	-217.39888	961.51093	-208.90979	-163.75649	463.30549	-143.85009	-226.29217	471.85426	-140.75554	-116.80208	975.19531	-89.80383	-241.28185	222.75103	-142.01438	-241.30405	223.03364	-92.63381	-248.62941	263.98743	-111.70722	-203.64715	1409.13108	-150.36502	-250.45196	611.99129	-173.56842	-238.20291	622.18839	-117.09351	-243.71422	650.71536	-152.05464	-211.54503	40.34293	-288.42755	-163.16634	1361.60715	-670.11384	-222.52426	1365.20469	-664.51347	0.00000	0.00000	-0.00000	999.99994	0.00000	-0.00000	0.00000	0.00000	-999.99994	0.00000	999.99994	-0.00000	-192.84529	1363.40598	-667.31366	-211.12508	42.33612	-288.56466	-222.86458	73.94529	-129.82992	-183.15475	50.18477	-75.86580	-143.23860	1358.48393	-663.44957	-188.86898	1412.04029	-656.41067	-197.67710	1352.89604	-618.67012	-137.17121	1398.20491	-727.74384	-184.81511	1444.53563	-703.58837	-190.94352	1375.93231	-687.58851	-216.34444	865.22976	-288.76441	-172.72123	1361.75717	-667.29805	-218.54800	1413.83906	-653.61049	-220.56748	1354.12318	-615.79623	-186.38867	80.70968	-141.39167	-203.45198	1340.33472	-560.53225	-67.06809	940.68758	-265.25641	-67.06809	0.00000	-265.25641	-69.27129	0.00000	-265.25641	-69.27129	100.00000	-265.25641	0.00000	0.00000	999.99994	-187.20992	1330.08037	-73.26938	-66.88198	941.79593	-258.60062	-69.27129	955.19906	-178.19609	33.07953	941.05245	-261.27188	-64.17796	925.35981	-357.20340	-66.58762	1040.43568	-275.03484	80.73625	79.25592	-145.10457	113.92072	76.38703	-130.21022	55.64450	1324.52756	-456.52576	31.76399	1394.76301	-737.29526	81.21863	44.66947	-78.83421	36.77141	939.91525	-268.03125	80.73206	952.72600	-212.18324	33.56290	463.17202	-155.34707	92.22267	471.39769	-159.10136	123.48272	256.99350	-133.63064	116.20156	246.08638	-84.92081	131.92978	281.26923	-101.68566	46.10307	1412.91285	-151.17432	117.49285	637.94449	-193.73459	108.24165	619.08011	-134.60644	122.36892	657.73619	-157.25766	116.08261	43.71349	-283.60095	2.56453	1387.53223	-669.12938	64.79905	1391.18190	-670.22024	33.68179	1389.35707	-669.67481	-16.01222	1385.49113	-665.73023	36.22031	1341.65583	-684.44476	38.58703	1374.87777	-622.06925	-16.45269	1363.17905	-737.81838	38.17403	1320.20510	-724.81221	33.56417	1382.53128	-691.73368	-10.08538	876.04313	-220.16566	116.04809	43.80328	-284.73044	113.89829	76.88739	-128.62172	81.45073	45.47738	-79.40401	14.90534	1389.36407	-672.92464	67.33760	1343.48073	-684.99013	62.75595	1376.30611	-622.52816	78.36924	79.92874	-143.84482	44.66314	1356.94234	-563.10032	-71.47450	969.71055	-91.13576	0.00000	-1.00000	-1.00000	0.00000	0.00000	-1.00000	0.00000	-1.00000	1.00000	0.00000	0.00000	1.00000	-170.72148	942.56823	-255.82578	36.95752	941.02360	-261.37548	-71.29197	968.60109	-97.79145	0.00000	0.00000	-0.00000	-247.40278	195.93770	-122.43326	124.93904	212.49220	-113.05056	-240.08077	582.80124	-135.65525	112.75049	586.21716	-170.68201	0.00000	999.99994	-0.00000
272	4.51667	-150.62176	1519.65413	-97.41278	-1.65058	1524.55752	-103.34559	-76.87878	1393.75557	-82.26152	-73.30528	1548.02111	-163.38462	-69.35532	0.00000	-179.90016	-69.35532	0.00000	-279.90015	-132.94201	878.23339	-209.19083	0.70050	877.69761	-211.39265	-144.96000	1571.48472	-223.42364	-17.24642	1574.05976	-226.92233	-79.04579	1410.32237	-150.11011	-74.16864	1639.50264	-123.40984	-213.96728	1316.92713	-453.33216	-187.11622	1402.32060	-729.47584	-192.81916	1363.51148	-666.76312	55.68489	1323.81005	-455.85648	33.52218	1367.12329	-738.86491	33.87524	1388.65716	-668.99372	-124.07794	878.28797	-210.74131	-7.65892	877.56240	-213.55495	-186.61592	77.66781	-141.91301	-220.37262	72.05525	-128.50352	-213.96728	1316.92713	-453.33216	-188.99792	1375.34270	-734.30778	-185.29375	46.58826	-77.07368	-170.75058	941.29154	-264.56095	-217.32333	961.26997	-210.87382	-163.39875	463.50318	-144.96331	-226.27724	471.83822	-141.67056	-117.15560	974.45484	-91.51025	-241.25710	222.74224	-142.38849	-241.28071	223.10663	-93.00665	-248.60128	264.03177	-112.15916	-204.05242	1408.43920	-149.78187	-250.46840	611.89558	-175.07313	-238.28887	622.19228	-118.71339	-243.83956	650.68420	-153.65524	-211.54456	40.28793	-288.43943	-163.14743	1361.93497	-669.51627	-222.49088	1365.08797	-664.00997	0.00000	0.00000	-0.00000	999.99994	0.00000	-0.00000	0.00000	0.00000	-999.99994	0.00000	999.99994	-0.00000	-192.81916	1363.51148	-666.76312	-210.65358	42.35534	-288.64643	-222.68781	74.02942	-129.94663	-183.31657	49.99113	-75.85728	-143.18244	1358.95016	-662.84032	-189.21613	1412.15873	-655.78814	-197.63700	1352.89892	-618.14046	-137.29796	1398.74932	-727.15545	-185.30593	1444.73606	-703.06279	-190.97111	1376.08755	-687.08521	-216.01164	865.11824	-291.30805	-172.65985	1362.01071	-666.72944	-218.88784	1413.73522	-653.03492	-220.52038	1353.95403	-615.30521	-186.36412	80.58109	-141.44629	-203.39323	1340.21925	-560.04764	-66.80502	940.64375	-267.07312	-66.80502	0.00000	-267.07312	-69.35532	0.00000	-267.07312	-69.35532	100.00000	-267.07312	0.00000	0.00000	999.99994	-187.55197	1329.19380	-72.82444	-66.63732	941.72439	-260.41229	-69.35532	954.79710	-179.90016	33.33153	941.10132	-262.82836	-63.53767	925.70551	-359.07218	-66.40933	1040.43258	-276.43183	80.73700	79.33590	-145.26956	113.88943	76.48818	-130.28944	55.68489	1323.81005	-455.85648	32.02878	1394.14435	-736.63191	81.21157	44.73868	-78.89855	37.14053	939.99595	-269.58531	81.34675	952.85091	-213.24258	33.46392	463.27671	-156.73704	92.28264	471.41629	-160.04836	123.47827	257.08766	-134.06501	116.09901	246.29230	-85.33351	131.86252	281.42962	-102.14611	45.96083	1412.20555	-150.43835	117.57012	637.84563	-195.62701	108.46199	619.13742	-136.42557	122.57717	657.69476	-159.17237	116.08532	43.63116	-283.64869	2.84699	1386.89715	-668.45138	64.90349	1390.41714	-669.53601	33.87524	1388.65716	-668.99372	-15.82662	1384.88796	-665.05465	36.32299	1340.94979	-683.75916	38.74677	1374.17259	-621.38628	-16.24929	1362.63798	-737.23088	38.28990	1319.55209	-724.22785	33.76381	1381.84939	-691.08340	-9.79168	875.86769	-222.13766	115.76814	43.65832	-284.78891	113.79361	76.94689	-128.72132	81.73597	45.34931	-79.36808	15.00589	1388.68989	-672.22704	67.35124	1342.70977	-684.30144	62.84593	1375.55018	-621.84183	78.48143	79.79414	-144.00270	44.78007	1356.23365	-562.42510	-71.90561	968.95044	-92.72718	0.00000	-1.00000	-1.00000	0.00000	0.00000	-1.00000	0.00000	-1.00000	1.00000	0.00000	0.00000	1.00000	-170.58287	942.37217	-257.90012	37.30825	941.07653	-262.92448	-71.69639	967.86915	-99.38672	0.00000	0.00000	-0.00000	-247.40241	195.96146	-122.76566	124.90041	212.61299	-113.39060	-240.20658	582.79748	-137.13674	112.78398	586.19530	-172.37432	0.00000	999.99994	-0.00000
273	4.53333	-150.63696	1519.13443	-96.98944	-1.67892	1523.87948	-102.84533	-77.17571	1393.28711	-81.44919	-73.29969	1547.46140	-162.88540	-69.47433	0.00000	-181.50921	-69.47433	0.00000	-281.50919	-132.84942	878.18900	-211.26675	0.79901	877.73529	-213.09553	-144.92047	1571.04324	-222.92548	-17.14029	1573.48296	-226.36288	-79.27902	1409.68610	-149.53024	-74.06499	1638.95378	-122.81246	-213.96337	1316.63408	-452.91662	-187.21960	1402.40990	-728.99026	-192.72374	1363.58175	-666.27499	55.62315	1323.17407	-455.27487	33.82899	1366.37751	-738.37941	33.77222	1387.83758	-668.15642	-124.01114	878.16597	-212.72933	-7.46204	877.50413	-215.29856	-186.56963	77.68576	-141.97910	-220.32963	72.09315	-128.55972	-213.96337	1316.63408	-452.91662	-188.96362	1375.42320	-733.81858	-185.28240	46.59782	-77.11030	-170.64809	941.39433	-266.48949	-217.26308	961.28185	-212.62546	-163.50433	463.49352	-146.14811	-226.23004	471.87291	-142.80940	-117.52471	974.02889	-93.11905	-241.20785	222.75954	-142.79467	-241.20171	223.25818	-93.45068	-248.53216	264.12732	-112.66715	-204.39870	1407.76527	-149.21846	-250.43813	611.83350	-176.84365	-238.50928	622.24110	-120.40480	-243.90605	650.66284	-155.43294	-211.52621	40.25769	-288.47300	-163.01379	1362.15693	-669.04290	-222.43367	1365.00664	-663.50703	0.00000	0.00000	-0.00000	999.99994	0.00000	-0.00000	0.00000	0.00000	-999.99994	0.00000	999.99994	-0.00000	-192.72374	1363.58175	-666.27499	-210.48958	42.33531	-288.69756	-222.57134	74.13636	-130.02678	-183.26775	50.07723	-75.89748	-143.07207	1359.24586	-662.28629	-189.36214	1412.23174	-655.23534	-197.56208	1352.88708	-617.67235	-137.38342	1399.10201	-726.66442	-185.63584	1444.83809	-702.58324	-190.94027	1376.16306	-686.59620	-215.78286	865.28292	-293.62347	-172.58529	1362.16528	-666.16467	-219.07203	1413.65664	-652.46727	-220.47513	1353.82171	-614.81346	-186.27419	80.63357	-141.50231	-203.34354	1340.10796	-559.59580	-66.58639	940.80341	-268.78346	-66.58639	0.00000	-268.78346	-69.47433	-0.00000	-268.78346	-69.47433	100.00000	-268.78346	0.00000	0.00000	999.99994	-187.87029	1328.41358	-72.40309	-66.43346	941.86198	-262.11874	-69.47433	954.67582	-181.50921	33.54062	941.29420	-264.32259	-62.94787	926.17290	-360.81874	-66.21854	1040.62294	-277.80986	80.81825	79.31723	-145.29580	113.82710	76.58232	-130.40549	55.62315	1323.17407	-455.27487	32.46123	1393.51710	-736.08384	81.18041	44.80230	-78.95890	37.47530	940.21241	-271.07740	81.26688	952.90523	-214.33915	33.32812	463.36110	-157.91744	92.26378	471.35559	-161.17402	123.46321	257.12748	-134.57290	116.03101	246.48245	-85.84509	131.79384	281.56584	-102.72405	45.84066	1411.60683	-149.84203	117.49010	637.72626	-197.59065	108.67207	619.10705	-138.26070	122.73281	657.63263	-161.19939	116.09079	43.58294	-283.68880	3.09674	1386.27749	-667.98873	64.44770	1389.39773	-668.32417	33.77222	1387.83758	-668.15642	-15.93300	1384.16277	-664.17076	36.11873	1340.11617	-682.89283	38.65934	1373.37515	-620.54392	-15.95086	1361.88424	-737.04655	38.51554	1318.77213	-723.82741	33.79033	1380.99035	-690.56241	-9.55807	875.89869	-223.98234	115.60197	43.62837	-284.84096	113.75699	77.01885	-128.79355	81.87327	45.35465	-79.37037	14.54191	1387.74125	-670.90620	66.79417	1341.67632	-683.06061	62.47157	1374.56789	-620.61490	78.52404	79.78584	-144.15045	44.69769	1355.50582	-561.71569	-72.36228	968.54822	-94.23496	0.00000	-1.00000	-1.00000	0.00000	0.00000	-1.00000	0.00000	-1.00000	1.00000	0.00000	0.00000	1.00000	-170.49516	942.45285	-259.82477	37.62824	941.27098	-264.41268	-72.12701	967.48920	-100.89721	0.00000	0.00000	-0.00000	-247.33474	196.05515	-123.16886	124.84134	212.72279	-113.81337	-240.31654	582.81321	-138.79234	112.76607	586.10645	-174.31443	0.00000	999.99994	-0.00000
